<svg width="48" height="51" viewBox="0 0 48 51" fill="none" xmlns="http://www.w3.org/2000/svg">
<path d="M47.0124 0.5H0.25V50.5H47.0124V0.5Z" fill="#009845"/>
<path d="M20.7339 18.4723C20.4327 19.0496 20.0059 19.5265 19.4537 19.9281C18.9015 20.3046 18.2238 20.6058 17.4457 20.8066C16.6676 21.0074 15.8141 21.1078 14.8603 21.1078H6.82812V4.19017H14.6595C16.3915 4.19017 17.7469 4.59177 18.7509 5.36989C19.7298 6.148 20.2318 7.22731 20.2318 8.55764V8.60784C20.2318 9.08474 20.1816 9.51145 20.0561 9.88796C19.9306 10.2645 19.78 10.5908 19.5792 10.892C19.3784 11.1932 19.1274 11.4442 18.8764 11.6701C18.6003 11.896 18.3242 12.0968 18.023 12.2474C19.0019 12.6239 19.78 13.1259 20.3323 13.7534C20.8845 14.3809 21.1857 15.2594 21.1857 16.389V16.4392C21.1606 17.2173 21.01 17.895 20.7339 18.4723ZM16.5672 9.18515C16.5672 8.63294 16.3664 8.18113 15.9396 7.90503C15.5129 7.60382 14.9105 7.45322 14.1324 7.45322H10.4426V11.0175H13.8814C14.7097 11.0175 15.3623 10.8669 15.8392 10.5908C16.3162 10.3147 16.5672 9.86286 16.5672 9.23535V9.18515ZM17.4959 15.9372C17.4959 15.3849 17.27 14.9331 16.8433 14.6068C16.4166 14.2805 15.7137 14.1048 14.7348 14.1048H10.4426V17.8197H14.8603C15.6886 17.8197 16.3162 17.6691 16.7931 17.3679C17.27 17.0667 17.4959 16.6149 17.4959 15.9874V15.9372ZM18.6756 38.6279L10.4928 27.8849V38.6279H6.82812V21.7353H10.2669L18.1736 32.152V21.7353H21.8383V38.6279H18.6756ZM39.7852 33.5827C39.3334 34.6369 38.7059 35.5657 37.9027 36.3689C37.0995 37.1721 36.1456 37.7996 35.0412 38.2514C33.9368 38.7032 32.732 38.9291 31.4267 38.9291C30.1215 38.9291 28.9167 38.7032 27.8373 38.2514C26.7329 37.7996 25.8042 37.1721 25.001 36.394C24.1977 35.6159 23.5953 34.6871 23.1435 33.6329C22.6917 32.5787 22.4909 31.4492 22.4909 30.2444V30.1942C22.4909 28.9894 22.7168 27.8598 23.1686 26.8056C23.6204 25.7514 24.2479 24.8227 25.0512 24.0195C25.8544 23.2163 26.8082 22.5888 27.9126 22.137C29.0171 21.6851 30.2219 21.4592 31.5271 21.4592C32.8324 21.4592 34.0372 21.6851 35.1165 22.137C36.2209 22.5888 37.1497 23.2163 37.9529 23.9944C38.7561 24.7725 39.3585 25.7012 39.8103 26.7554C40.2621 27.8096 40.4629 28.9392 40.4629 30.144V30.1942C40.4629 31.399 40.237 32.5285 39.7852 33.5827ZM36.5723 30.1942C36.5723 29.4663 36.4468 28.7886 36.1958 28.1359C35.9448 27.4833 35.5934 26.9311 35.1416 26.4542C34.6898 25.9773 34.1376 25.6008 33.5101 25.2996C32.8826 25.0235 32.2048 24.8729 31.4518 24.8729C30.6988 24.8729 29.996 24.9984 29.3936 25.2745C28.7661 25.5506 28.2389 25.9271 27.8122 26.404C27.3604 26.8809 27.0341 27.4582 26.7831 28.0857C26.5321 28.7133 26.4066 29.391 26.4066 30.1189V30.1691C26.4066 30.897 26.5321 31.5747 26.7831 32.2273C27.0341 32.8799 27.3855 33.4321 27.8373 33.909C28.2891 34.3859 28.8414 34.7625 29.4438 35.0637C30.0713 35.3398 30.749 35.4904 31.502 35.4904C32.2299 35.4904 32.9328 35.3649 33.5603 35.0888C34.1878 34.8127 34.7149 34.4361 35.1667 33.9592C35.6185 33.4823 35.9448 32.905 36.1958 32.2775C36.4468 31.65 36.5723 30.9723 36.5723 30.2444V30.1942ZM28.0632 46.6098C27.8875 46.7604 27.6867 46.8608 27.4859 46.9612C27.2851 47.0616 27.0341 47.1369 26.7831 47.1871C26.5321 47.2373 26.256 47.2624 25.9297 47.2624C25.4528 47.2624 25.0261 47.1871 24.6245 47.0114C24.2228 46.8357 23.8714 46.6098 23.5702 46.3086C23.269 46.0074 23.0431 45.656 22.8925 45.2544C22.7419 44.8528 22.6415 44.4261 22.6415 43.9492C22.6415 43.4974 22.7168 43.0707 22.8925 42.6691C23.0682 42.2675 23.2941 41.9161 23.5702 41.6149C23.8714 41.3137 24.2228 41.0627 24.6245 40.8869C25.0261 40.7112 25.4779 40.6359 25.9799 40.6359C26.2811 40.6359 26.5572 40.661 26.8082 40.7112C27.0592 40.7614 27.2851 40.8367 27.4859 40.912C27.6867 40.9873 27.8875 41.1129 28.0381 41.2133C28.2138 41.3388 28.3644 41.4643 28.515 41.6149L27.6114 42.644C27.3604 42.4181 27.1094 42.2424 26.8333 42.1169C26.5823 41.9914 26.2811 41.9161 25.9548 41.9161C25.6787 41.9161 25.4277 41.9663 25.2018 42.0667C24.9759 42.1671 24.7751 42.3177 24.5994 42.4934C24.4237 42.6691 24.2981 42.895 24.2228 43.1209C24.1224 43.3719 24.0973 43.6229 24.0973 43.899V43.9241C24.0973 44.2002 24.1475 44.4512 24.2228 44.7022C24.3232 44.9532 24.4488 45.154 24.5994 45.3548C24.75 45.5305 24.9508 45.6811 25.1767 45.7815C25.4026 45.8819 25.6536 45.9321 25.9297 45.9321C26.3062 45.9321 26.6074 45.8568 26.8584 45.7313C27.1094 45.6058 27.3604 45.405 27.6114 45.1791L28.515 46.0827C28.4146 46.3086 28.2389 46.4843 28.0632 46.6098ZM33.8364 46.6098C33.6607 46.7604 33.4599 46.8608 33.2591 46.9612C33.0583 47.0616 32.8073 47.1369 32.5562 47.1871C32.3052 47.2373 32.0291 47.2624 31.7028 47.2624C31.2259 47.2624 30.7992 47.1871 30.3976 47.0114C29.996 46.8357 29.6446 46.6098 29.3434 46.3086C29.0422 46.0074 28.8163 45.656 28.6657 45.2544C28.4899 44.8528 28.4146 44.4261 28.4146 43.9492C28.4146 43.4974 28.4899 43.0707 28.6657 42.6691C28.8414 42.2675 29.0673 41.9161 29.3434 41.6149C29.6446 41.3137 29.996 41.0627 30.3976 40.8869C30.7992 40.7112 31.251 40.6359 31.753 40.6359C32.0542 40.6359 32.3303 40.661 32.5813 40.7112C32.8324 40.7614 33.0583 40.8367 33.2591 40.912C33.4599 40.9873 33.6607 41.1129 33.8113 41.2133C33.987 41.3388 34.1376 41.4643 34.2882 41.6149L33.3846 42.644C33.1336 42.4181 32.8826 42.2424 32.6064 42.1169C32.3554 41.9914 32.0542 41.9161 31.7279 41.9161C31.4518 41.9161 31.2008 41.9663 30.9749 42.0667C30.749 42.1671 30.5482 42.3177 30.3725 42.4934C30.1968 42.6691 30.0713 42.895 29.996 43.1209C29.8956 43.3719 29.8705 43.6229 29.8705 43.899V43.9241C29.8705 44.2002 29.9207 44.4512 29.996 44.7022C30.0964 44.9532 30.2219 45.154 30.3725 45.3548C30.5231 45.5305 30.7239 45.6811 30.9498 45.7815C31.1757 45.8819 31.4267 45.9321 31.7028 45.9321C32.0793 45.9321 32.3805 45.8568 32.6315 45.7313C32.8826 45.6058 33.1336 45.405 33.3846 45.1791L34.2882 46.0827C34.1878 46.3086 34.0121 46.4843 33.8364 46.6098ZM38.982 47.1871L35.8695 43.0958V47.1871H34.4639V40.7614H35.7691L38.7812 44.7273V40.7614H40.1868V47.1871H38.982ZM35.0161 16.2635C34.9659 16.2384 34.9157 16.2133 34.8655 16.2133C34.8153 16.2133 34.7651 16.2384 34.7149 16.2635C34.6647 16.2886 34.6396 16.3137 34.6145 16.3639C34.5894 16.4141 34.5643 16.4643 34.5643 16.5145C34.5643 16.5647 34.5894 16.6149 34.6145 16.6651C34.6396 16.7153 34.6647 16.7404 34.7149 16.7655C34.7651 16.7906 34.8153 16.8157 34.8655 16.8157C34.9157 16.8157 34.9659 16.7906 35.0161 16.7655C35.0663 16.7404 35.0914 16.7153 35.1165 16.6651C35.1416 16.6149 35.1667 16.5647 35.1667 16.5145C35.1667 16.4643 35.1416 16.4141 35.1165 16.3639C35.1165 16.3137 35.0663 16.2886 35.0161 16.2635ZM34.9659 16.7153L34.9408 16.6902C34.9157 16.6651 34.9157 16.64 34.8906 16.6149C34.8655 16.5898 34.8655 16.5898 34.8655 16.5647C34.8655 16.5647 34.8404 16.5647 34.8153 16.5647H34.7902V16.7153H34.7149V16.3388H34.8906C34.9157 16.3388 34.9659 16.3388 34.9659 16.3639C34.991 16.389 34.991 16.4141 34.991 16.4392C34.991 16.4643 34.991 16.4894 34.9659 16.5145C34.9408 16.5396 34.9157 16.5396 34.8906 16.5396C34.9157 16.5396 34.9157 16.5647 34.9408 16.5647C34.9408 16.5647 34.9659 16.5898 34.991 16.64L35.0412 16.7153H34.9659ZM34.9659 16.4392C34.9659 16.4141 34.9659 16.4141 34.9408 16.389C34.9157 16.389 34.9157 16.3639 34.8906 16.3639H34.8153V16.4643H34.8906C34.9157 16.4643 34.9408 16.4643 34.9408 16.4392C34.9408 16.4643 34.9659 16.4643 34.9659 16.4392ZM39.6095 9.21025C39.1577 8.15603 38.5553 7.22731 37.7521 6.4492C36.9489 5.67109 36.0201 5.04358 34.9157 4.59177C33.8113 4.13997 32.6316 3.91406 31.3263 3.91406C30.0211 3.91406 28.8163 4.13997 27.7118 4.59177C26.6074 5.04358 25.6536 5.67109 24.8504 6.4743C24.0471 7.27752 23.4196 8.20623 22.9678 9.26045C22.516 10.3147 22.2901 11.4442 22.2901 12.649V12.6992C22.2901 13.904 22.516 15.0335 22.9427 16.0878C23.3945 17.142 23.9969 18.0707 24.8002 18.8488C25.6034 19.6269 26.5321 20.2544 27.6365 20.7062C28.741 21.158 29.9207 21.3839 31.2259 21.3839C32.5311 21.3839 33.736 21.158 34.8404 20.7062C35.9448 20.2544 36.8987 19.6269 37.7019 18.8237C38.5051 18.0205 39.1326 17.0918 39.5844 16.0376C40.0362 14.9833 40.2621 13.8538 40.2621 12.649V12.5988C40.2621 11.394 40.0613 10.2645 39.6095 9.21025ZM32.7069 18.3719C32.7069 18.3719 33.0332 16.9663 29.243 15.2594C26.7078 13.904 26.5823 11.896 26.6576 10.9673C26.6827 10.7916 26.6827 10.6912 26.7078 10.5908C26.7329 11.2685 26.9086 13.4271 29.6948 14.8578C33.2842 16.64 32.7069 18.3719 32.7069 18.3719ZM33.2591 17.895C33.2591 17.895 33.7611 16.3137 29.494 14.0546C26.8584 12.5737 26.9588 10.139 27.2098 9.03454C27.2098 9.00944 27.26 9.00944 27.26 9.03454C27.1847 10.0135 27.26 11.9462 30.0713 13.6279C34.0121 15.8117 33.2591 17.895 33.2591 17.895ZM35.1918 16.6902C35.1667 16.7404 35.1165 16.7906 35.0663 16.8157C35.0161 16.8408 34.9408 16.8659 34.8906 16.8659C34.8153 16.8659 34.7651 16.8408 34.7149 16.8157C34.6647 16.7906 34.6145 16.7404 34.5894 16.6902C34.5643 16.64 34.5392 16.5647 34.5392 16.5145C34.5392 16.4392 34.5643 16.389 34.5894 16.3388C34.6145 16.2886 34.6647 16.2384 34.7149 16.2133C34.7651 16.1882 34.8404 16.1631 34.8906 16.1631C34.9659 16.1631 35.0161 16.1882 35.0663 16.2133C35.1165 16.2384 35.1667 16.2886 35.1918 16.3388C35.2169 16.389 35.242 16.4643 35.242 16.5145C35.242 16.5898 35.2169 16.64 35.1918 16.6902ZM33.6858 12.2725C33.6858 12.2725 31.9538 12.1219 32.1546 10.9171C32.1546 10.9171 31.5773 12.2474 33.2842 13.3769C35.1918 14.6319 33.9117 16.8659 33.7611 17.1169C33.7611 17.142 33.7611 17.142 33.736 17.142C33.736 17.142 34.3133 15.5355 29.9458 12.9251C27.4357 11.4191 27.4357 9.05964 27.7118 7.80462C27.7118 7.77952 27.762 7.77952 27.762 7.80462C27.6616 8.80864 27.8875 10.6159 30.0713 12.1721C29.7952 10.3398 31 8.65804 33.2842 8.73334C33.2842 8.73334 30.9498 8.28153 29.996 9.96326C29.6697 10.5406 29.6446 11.1932 29.6446 11.3689C29.3434 11.1179 29.1175 10.8669 28.9167 10.5908C28.9418 10.2645 29.0171 9.71225 29.1677 9.33575C29.4187 8.70824 30.2219 6.67511 34.5643 7.30262L34.0372 9.13495L35.7691 12.1972C36.3464 13.2514 34.0874 13.0004 33.6858 12.2725Z" fill="white"/>
</svg>
